# xmcd CD database file
#
# Track frame offsets:
#	150
#	15464
#	31874
#	49280
#	64993
#	85608
#	96584
#	110146
#
# Disc length: 1827 seconds
#
# Revision: 2
# Processed by: cddbd v1.5.2PL0 Copyright (c) Steve Scherf et al.
# Submitted via: CDex 1.70beta2
#
DISCID=66072108
DTITLE=Blue Date Bigband GaS - On Broadway
DYEAR=2007
DGENRE=Blues
TTITLE0=Tequila
TTITLE1=On Broadway
TTITLE2=Lady Madonna
TTITLE3=Night Train
TTITLE4=Favorite Son
TTITLE5=The American Patrol
TTITLE6=Hand It Over
TTITLE7=Schloss-Party
EXTD=YEAR: 2007
EXTT0=
EXTT1=
EXTT2=
EXTT3=
EXTT4=
EXTT5=
EXTT6=
EXTT7=
PLAYORDER=
